<?xml version="1.0" encoding="UTF-8" standalone="no"?><!-- Generator: Gravit.io --><svg xmlns="http://www.w3.org/2000/svg" xmlns:xlink="http://www.w3.org/1999/xlink" style="isolation:isolate" viewBox="0 0 102 32" width="102pt" height="32pt"><defs><clipPath id="_clipPath_fsqqCrUMdd5a4nZdol3bw20KMngSgpwb"><rect width="102" height="32"/></clipPath></defs><g clip-path="url(#_clipPath_fsqqCrUMdd5a4nZdol3bw20KMngSgpwb)"><g><path d=" M 38.342 21.217 L 38.342 21.217 L 38.548 16.337 L 38.548 16.337 Q 38.548 15.701 37.875 15.028 L 37.875 15.028 L 37.912 14.803 L 37.912 14.803 Q 38.043 14.766 38.165 14.738 L 38.165 14.738 L 38.165 14.738 Q 38.286 14.71 38.445 14.672 L 38.445 14.672 L 38.445 14.672 Q 38.604 14.635 38.81 14.598 L 38.81 14.598 L 38.81 14.598 Q 39.016 14.56 39.24 14.523 L 39.24 14.523 L 39.24 14.523 Q 39.763 14.467 40.221 14.467 L 40.221 14.467 L 40.221 14.467 Q 40.68 14.467 41.007 14.841 L 41.007 14.841 L 41.007 14.841 Q 41.334 15.215 41.334 16.028 L 41.334 16.028 L 41.334 16.028 Q 41.334 16.841 41.082 18.346 L 41.082 18.346 L 41.082 18.346 Q 40.829 19.852 40.829 20.59 L 40.829 20.59 L 40.829 20.59 Q 40.829 21.329 41.184 21.329 L 41.184 21.329 L 41.184 21.329 Q 41.764 21.329 42.456 20.6 L 42.456 20.6 L 42.456 20.6 Q 42.475 20.3 42.699 18.692 L 42.699 18.692 L 42.699 18.692 Q 42.923 17.084 42.923 16.355 L 42.923 16.355 L 42.923 16.355 Q 42.923 15.626 42.811 15.103 L 42.811 15.103 L 42.811 15.103 Q 44.251 14.56 45.391 14.56 L 45.391 14.56 L 45.391 14.56 Q 45.634 14.729 45.634 15.654 L 45.634 15.654 L 45.634 15.654 Q 45.634 16.58 45.316 18.216 L 45.316 18.216 L 45.316 18.216 Q 44.999 19.852 44.999 20.59 L 44.999 20.59 L 44.999 20.59 Q 44.999 21.329 45.298 21.329 L 45.298 21.329 L 45.298 21.329 Q 46.008 21.329 46.85 20.272 L 46.85 20.272 L 46.85 20.272 Q 47.691 19.216 47.747 18.505 L 47.747 18.505 L 46.476 17.084 L 46.476 17.084 Q 46.551 16.28 46.868 15.626 L 46.868 15.626 L 46.868 15.626 Q 47.186 14.972 47.467 14.71 L 47.467 14.71 L 47.728 14.467 L 47.728 14.467 Q 48.532 14.467 48.944 14.897 L 48.944 14.897 L 48.944 14.897 Q 49.355 15.327 49.355 15.907 L 49.355 15.907 L 49.355 15.907 Q 49.355 17.384 48.626 19.029 L 48.626 19.029 L 48.626 19.029 Q 47.897 20.674 46.663 21.824 L 46.663 21.824 L 46.663 21.824 Q 45.429 22.974 44.157 22.974 L 44.157 22.974 L 44.157 22.974 Q 43.522 22.974 43.082 22.609 L 43.082 22.609 L 43.082 22.609 Q 42.643 22.245 42.493 21.665 L 42.493 21.665 L 42.493 21.665 Q 41.184 22.974 39.95 22.974 L 39.95 22.974 L 39.95 22.974 Q 39.128 22.974 38.735 22.46 L 38.735 22.46 L 38.735 22.46 Q 38.342 21.946 38.342 21.217 Z  M 53.001 15.626 L 53.001 15.626 L 53.001 15.626 Q 53.001 16.411 52.496 18.328 L 52.496 18.328 L 52.496 18.328 Q 51.991 20.244 51.991 20.833 L 51.991 20.833 L 51.991 20.833 Q 51.991 21.422 52.16 21.422 L 52.16 21.422 L 52.16 21.422 Q 52.272 21.422 53.02 21.067 L 53.02 21.067 L 53.244 20.955 L 53.562 21.609 L 53.562 21.609 Q 53.394 21.759 53.113 21.983 L 53.113 21.983 L 53.113 21.983 Q 52.833 22.207 52.066 22.591 L 52.066 22.591 L 52.066 22.591 Q 51.3 22.974 50.645 22.974 L 50.645 22.974 L 50.645 22.974 Q 49.991 22.974 49.617 22.572 L 49.617 22.572 L 49.617 22.572 Q 49.243 22.17 49.243 21.488 L 49.243 21.488 L 49.243 21.488 Q 49.243 20.805 49.71 19.057 L 49.71 19.057 L 49.71 19.057 Q 50.178 17.309 50.178 16.785 L 50.178 16.785 L 50.178 16.785 Q 50.178 16 49.692 15.308 L 49.692 15.308 L 49.523 15.084 L 49.542 14.841 L 49.542 14.841 Q 50.533 14.56 52.758 14.56 L 52.758 14.56 L 52.758 14.56 Q 53.001 14.841 53.001 15.626 Z  M 70.502 18.122 L 70.502 18.122 L 70.502 18.122 Q 70.128 17.758 70.128 17.141 L 70.128 17.141 L 70.128 17.141 Q 70.128 16.524 70.642 16.056 L 70.642 16.056 L 70.642 16.056 Q 71.156 15.589 71.829 15.589 L 71.829 15.589 L 71.829 15.589 Q 72.502 15.589 72.876 15.963 L 72.876 15.963 L 72.876 15.963 Q 73.25 16.337 73.25 16.944 L 73.25 16.944 L 73.25 16.944 Q 73.25 17.552 72.717 18.019 L 72.717 18.019 L 72.717 18.019 Q 72.184 18.487 71.53 18.487 L 71.53 18.487 L 71.53 18.487 Q 70.876 18.487 70.502 18.122 Z  M 55.198 22.974 L 55.198 22.974 L 55.198 22.974 Q 54.553 22.974 54.132 22.544 L 54.132 22.544 L 54.132 22.544 Q 53.712 22.114 53.712 21.338 L 53.712 21.338 L 53.712 21.338 Q 53.712 20.562 54.637 16.383 L 54.637 16.383 L 54.637 16.383 Q 55.563 12.204 55.563 10.353 L 55.563 10.353 L 55.45 9.531 L 55.45 9.531 Q 56.909 9.026 58.18 9.026 L 58.18 9.026 L 58.18 9.026 Q 58.367 9.288 58.367 9.942 L 58.367 9.942 L 58.367 9.942 Q 58.367 11.438 57.423 15.729 L 57.423 15.729 L 57.423 15.729 Q 56.479 20.02 56.479 20.721 L 56.479 20.721 L 56.479 20.721 Q 56.479 21.422 56.647 21.422 L 56.647 21.422 L 57.956 20.955 L 58.292 21.609 L 58.292 21.609 Q 57.657 22.114 56.75 22.544 L 56.75 22.544 L 56.75 22.544 Q 55.843 22.974 55.198 22.974 Z  M 59.704 22.974 L 59.704 22.974 L 59.704 22.974 Q 59.059 22.974 58.638 22.544 L 58.638 22.544 L 58.638 22.544 Q 58.218 22.114 58.218 21.338 L 58.218 21.338 L 58.218 21.338 Q 58.218 20.562 59.143 16.383 L 59.143 16.383 L 59.143 16.383 Q 60.069 12.204 60.069 10.353 L 60.069 10.353 L 59.956 9.531 L 59.956 9.531 Q 61.415 9.026 62.686 9.026 L 62.686 9.026 L 62.686 9.026 Q 62.873 9.288 62.873 9.942 L 62.873 9.942 L 62.873 9.942 Q 62.873 11.438 61.929 15.729 L 61.929 15.729 L 61.929 15.729 Q 60.985 20.02 60.985 20.721 L 60.985 20.721 L 60.985 20.721 Q 60.985 21.422 61.153 21.422 L 61.153 21.422 L 62.462 20.955 L 62.798 21.609 L 62.798 21.609 Q 62.163 22.114 61.256 22.544 L 61.256 22.544 L 61.256 22.544 Q 60.349 22.974 59.704 22.974 Z  M 66.8 14.691 L 68.613 14.691 L 68.613 14.691 Q 68.576 15.159 68.295 15.776 L 68.295 15.776 L 68.295 15.776 Q 67.585 15.701 66.949 15.701 L 66.949 15.701 L 66.613 15.701 L 66.613 15.701 Q 65.753 19.87 65.753 20.899 L 65.753 20.899 L 65.753 20.899 Q 65.753 21.441 65.986 21.441 L 65.986 21.441 L 65.986 21.441 Q 66.22 21.441 67.23 20.973 L 67.23 20.973 L 67.566 21.59 L 67.566 21.59 Q 65.902 22.974 64.481 22.974 L 64.481 22.974 L 64.481 22.974 Q 63.827 22.974 63.406 22.563 L 63.406 22.563 L 63.406 22.563 Q 62.985 22.151 62.985 21.469 L 62.985 21.469 L 62.985 21.469 Q 62.985 20.786 63.144 19.926 L 63.144 19.926 L 63.144 19.926 Q 63.303 19.066 63.584 17.823 L 63.584 17.823 L 63.584 17.823 Q 63.864 16.58 63.995 15.813 L 63.995 15.813 L 63.995 15.813 Q 63.303 15.869 62.967 15.925 L 62.967 15.925 L 62.967 15.925 Q 62.929 15.701 62.929 15.318 L 62.929 15.318 L 62.929 15.318 Q 62.929 14.934 62.985 14.691 L 62.985 14.691 L 64.163 14.691 L 64.163 14.691 Q 64.313 13.682 64.313 12.784 L 64.313 12.784 L 64.294 12.204 L 64.294 12.148 L 64.294 12.148 Q 65.753 11.644 67.043 11.644 L 67.043 11.644 L 67.043 11.644 Q 67.117 12.017 67.117 12.578 L 67.117 12.578 L 67.117 12.578 Q 67.117 13.139 66.8 14.691 L 66.8 14.691 Z  M 79.084 9.699 L 79.084 9.699 L 79.084 9.699 Q 79.084 11.12 78.13 15.271 L 78.13 15.271 L 78.13 15.271 Q 79.252 14.467 80.159 14.467 L 80.159 14.467 L 80.159 14.467 Q 81.066 14.467 81.711 15.224 L 81.711 15.224 L 81.711 15.224 Q 82.356 15.981 82.356 17.533 L 82.356 17.533 L 82.356 17.533 Q 82.356 20.132 81.337 21.553 L 81.337 21.553 L 81.337 21.553 Q 80.318 22.974 78.859 22.974 L 78.859 22.974 L 78.859 22.974 Q 78.317 22.974 77.765 22.843 L 77.765 22.843 L 77.765 22.843 Q 77.214 22.712 76.933 22.563 L 76.933 22.563 L 76.653 22.432 L 76.653 22.432 Q 75.456 22.843 74.316 22.843 L 74.316 22.843 L 74.316 22.843 Q 74.204 22.75 74.204 21.936 L 74.204 21.936 L 74.204 21.936 Q 74.204 21.123 75.251 16.552 L 75.251 16.552 L 75.251 16.552 Q 76.298 11.98 76.298 10.297 L 76.298 10.297 L 76.298 10.297 Q 76.298 9.998 76.204 9.531 L 76.204 9.531 L 76.204 9.531 Q 77.663 9.026 78.99 9.026 L 78.99 9.026 L 78.99 9.026 Q 79.084 9.288 79.084 9.699 Z  M 78.915 16.056 L 78.915 16.056 L 78.915 16.056 Q 78.56 16.056 77.85 16.393 L 77.85 16.393 L 77.85 16.393 Q 76.99 20.02 76.915 21.59 L 76.915 21.59 L 76.915 21.59 Q 77.476 21.834 77.981 21.834 L 77.981 21.834 L 77.981 21.834 Q 78.691 21.834 79.168 20.525 L 79.168 20.525 L 79.168 20.525 Q 79.645 19.216 79.645 17.636 L 79.645 17.636 L 79.645 17.636 Q 79.645 16.056 78.915 16.056 Z  M 83.253 22.806 L 83.253 22.806 L 82.898 22.806 L 82.898 22.806 Q 82.898 21.927 83.431 19.44 L 83.431 19.44 L 83.431 19.44 Q 83.964 16.954 83.964 16.617 L 83.964 16.617 L 83.964 16.617 Q 83.964 16 83.44 15.308 L 83.44 15.308 L 83.272 15.084 L 83.291 14.841 L 83.291 14.841 Q 84.3 14.56 86.525 14.56 L 86.525 14.56 L 86.525 14.56 Q 86.768 14.878 86.787 15.72 L 86.787 15.72 L 86.787 15.72 Q 88.414 14.467 89.535 14.467 L 89.535 14.467 L 89.535 14.467 Q 90.208 14.467 90.61 14.934 L 90.61 14.934 L 90.61 14.934 Q 91.012 15.402 91.012 16.103 L 91.012 16.103 L 91.012 16.103 Q 91.012 16.804 90.582 18.524 L 90.582 18.524 L 90.582 18.524 Q 90.152 20.244 90.152 20.833 L 90.152 20.833 L 90.152 20.833 Q 90.152 21.422 90.302 21.422 L 90.302 21.422 L 90.302 21.422 Q 90.414 21.422 91.087 21.067 L 91.087 21.067 L 91.312 20.955 L 91.648 21.609 L 91.648 21.609 Q 91.48 21.759 91.199 21.983 L 91.199 21.983 L 91.199 21.983 Q 90.919 22.207 90.162 22.591 L 90.162 22.591 L 90.162 22.591 Q 89.405 22.974 88.806 22.974 L 88.806 22.974 L 88.806 22.974 Q 87.441 22.974 87.441 21.422 L 87.441 21.422 L 87.441 21.422 Q 87.441 20.768 87.862 19.01 L 87.862 19.01 L 87.862 19.01 Q 88.283 17.253 88.283 16.748 L 88.283 16.748 L 88.283 16.748 Q 88.283 16.243 87.965 16.243 L 87.965 16.243 L 87.965 16.243 Q 87.423 16.243 86.637 16.71 L 86.637 16.71 L 86.637 16.71 Q 86.581 17.028 86.263 18.393 L 86.263 18.393 L 86.263 18.393 Q 85.609 21.329 85.609 22.544 L 85.609 22.544 L 85.609 22.544 Q 84.955 22.806 83.253 22.806 Z  M 96.622 9.699 L 96.622 9.699 L 96.622 9.699 Q 96.622 11.12 95.668 15.271 L 95.668 15.271 L 95.668 15.271 Q 96.79 14.467 97.697 14.467 L 97.697 14.467 L 97.697 14.467 Q 98.604 14.467 99.249 15.224 L 99.249 15.224 L 99.249 15.224 Q 99.894 15.981 99.894 17.533 L 99.894 17.533 L 99.894 17.533 Q 99.894 20.132 98.875 21.553 L 98.875 21.553 L 98.875 21.553 Q 97.856 22.974 96.397 22.974 L 96.397 22.974 L 96.397 22.974 Q 95.855 22.974 95.303 22.843 L 95.303 22.843 L 95.303 22.843 Q 94.752 22.712 94.471 22.563 L 94.471 22.563 L 94.191 22.432 L 94.191 22.432 Q 92.994 22.843 91.854 22.843 L 91.854 22.843 L 91.854 22.843 Q 91.742 22.75 91.742 21.936 L 91.742 21.936 L 91.742 21.936 Q 91.742 21.123 92.789 16.552 L 92.789 16.552 L 92.789 16.552 Q 93.836 11.98 93.836 10.297 L 93.836 10.297 L 93.836 10.297 Q 93.836 9.998 93.742 9.531 L 93.742 9.531 L 93.742 9.531 Q 95.201 9.026 96.528 9.026 L 96.528 9.026 L 96.528 9.026 Q 96.622 9.288 96.622 9.699 Z  M 96.453 16.056 L 96.453 16.056 L 96.453 16.056 Q 96.098 16.056 95.388 16.393 L 95.388 16.393 L 95.388 16.393 Q 94.528 20.02 94.453 21.59 L 94.453 21.59 L 94.453 21.59 Q 95.014 21.834 95.518 21.834 L 95.518 21.834 L 95.518 21.834 Q 96.229 21.834 96.706 20.525 L 96.706 20.525 L 96.706 20.525 Q 97.183 19.216 97.183 17.636 L 97.183 17.636 L 97.183 17.636 Q 97.183 16.056 96.453 16.056 Z " fill="rgb(255,56,92)"/><g><path d=" M 3.659 24.406 L 3.659 24.406 L 3.659 24.406 Q 3.659 24.406 3.85 15.77 L 3.85 15.77 L 3.85 15.77 Q 3.85 12.337 3.441 11.356 L 3.441 11.356 L 2.106 9.286 L 2.188 8.877 L 2.188 8.877 Q 4.122 8.441 7.746 8.441 L 7.746 8.441 L 7.746 8.441 Q 8.264 9.231 8.264 11.37 L 8.264 11.37 L 8.264 11.37 Q 8.264 13.508 7.991 17.118 L 7.991 17.118 L 7.991 17.118 Q 7.719 20.728 7.719 22.69 L 7.719 22.69 L 7.719 22.69 Q 7.719 24.652 8.645 24.652 L 8.645 24.652 L 8.645 24.652 Q 9.19 24.652 10.225 23.766 L 10.225 23.766 L 10.225 23.766 Q 11.261 22.881 11.996 21.845 L 11.996 21.845 L 11.996 21.845 Q 12.596 15.688 12.596 13.536 L 12.596 13.536 L 12.596 13.536 Q 12.596 11.383 11.996 9.531 L 11.996 9.531 L 11.996 9.531 Q 13.44 8.795 16.737 8.414 L 16.737 8.414 L 16.737 8.414 Q 17.037 9.395 17.037 11.179 L 17.037 11.179 L 17.037 11.179 Q 17.037 12.964 16.478 17.377 L 16.478 17.377 L 16.478 17.377 Q 15.92 21.791 15.92 23.221 L 15.92 23.221 L 15.92 23.221 Q 15.92 24.652 16.75 24.652 L 16.75 24.652 L 16.75 24.652 Q 17.581 24.652 18.998 23.071 L 18.998 23.071 L 18.998 23.071 Q 20.415 21.491 21.6 19.135 L 21.6 19.135 L 21.6 19.135 Q 22.785 16.778 22.921 14.871 L 22.921 14.871 L 20.033 13.182 L 20.033 13.182 Q 20.224 11.547 20.81 10.362 L 20.81 10.362 L 20.81 10.362 Q 21.396 9.177 21.886 8.795 L 21.886 8.795 L 22.377 8.414 L 22.377 8.414 Q 24.038 8.414 24.924 9.272 L 24.924 9.272 L 24.924 9.272 Q 25.809 10.13 25.809 11.302 L 25.809 11.302 L 25.809 11.302 Q 25.809 13.508 24.706 16.451 L 24.706 16.451 L 24.706 16.451 Q 23.603 19.393 21.981 21.954 L 21.981 21.954 L 21.981 21.954 Q 20.36 24.515 18.29 26.3 L 18.29 26.3 L 18.29 26.3 Q 16.219 28.085 14.476 28.085 L 14.476 28.085 L 14.476 28.085 Q 13.44 28.085 12.637 27.104 L 12.637 27.104 L 12.637 27.104 Q 11.833 26.123 11.806 24.597 L 11.806 24.597 L 11.806 24.597 Q 10.607 26.232 9.272 27.158 L 9.272 27.158 L 9.272 27.158 Q 7.937 28.085 6.711 28.085 L 6.711 28.085 L 6.711 28.085 Q 5.485 28.085 4.572 27.063 L 4.572 27.063 L 4.572 27.063 Q 3.659 26.041 3.659 24.406 Z " fill="none" vector-effect="non-scaling-stroke" stroke-width="1" stroke="rgb(255,56,92)" stroke-linejoin="miter" stroke-linecap="round" stroke-miterlimit="3"/><mask id="_mask_NNnF2Drt3durpmMzVoUsT067wglO4CiE"><path d=" M 24.692 4.986 L 24.692 4.986 L 31.554 4.232 L 33.47 3.915 L 33.47 3.915 Q 33.593 4.336 33.66 4.806 L 33.66 4.806 L 33.66 4.806 Q 33.728 5.277 33.594 5.505 L 33.594 5.505 L 33.594 5.505 Q 33.459 5.733 33.03 5.794 L 33.03 5.794 L 33.03 5.794 Q 32.989 5.8 30.109 5.941 L 30.109 5.941 L 30.109 5.941 Q 30.159 6.873 29.946 9.178 L 29.946 9.178 L 29.946 9.178 Q 29.734 11.483 29.607 14.089 L 29.607 14.089 L 29.607 14.089 Q 29.479 16.695 29.749 18.722 L 29.749 18.722 L 29.749 18.722 Q 29.01 19.246 26.536 19.6 L 26.536 19.6 L 26.393 19.621 L 26.393 19.621 Q 26.24 18.557 26.65 13.115 L 26.65 13.115 L 26.65 13.115 Q 27.059 7.672 26.895 6.527 L 26.895 6.527 L 26.895 6.527 Q 26.884 6.445 26.813 6.247 L 26.813 6.247 L 25.996 6.364 L 25.996 6.364 Q 24.319 6.604 23.492 7.244 L 23.492 7.244 L 23.492 7.244 Q 22.934 6.698 22.662 5.527 L 22.662 5.527 L 22.662 5.527 Q 23.322 5.182 24.692 4.986 Z " fill="white" stroke="none"/></mask><path d=" M 24.692 4.986 L 24.692 4.986 L 31.554 4.232 L 33.47 3.915 L 33.47 3.915 Q 33.593 4.336 33.66 4.806 L 33.66 4.806 L 33.66 4.806 Q 33.728 5.277 33.594 5.505 L 33.594 5.505 L 33.594 5.505 Q 33.459 5.733 33.03 5.794 L 33.03 5.794 L 33.03 5.794 Q 32.989 5.8 30.109 5.941 L 30.109 5.941 L 30.109 5.941 Q 30.159 6.873 29.946 9.178 L 29.946 9.178 L 29.946 9.178 Q 29.734 11.483 29.607 14.089 L 29.607 14.089 L 29.607 14.089 Q 29.479 16.695 29.749 18.722 L 29.749 18.722 L 29.749 18.722 Q 29.01 19.246 26.536 19.6 L 26.536 19.6 L 26.393 19.621 L 26.393 19.621 Q 26.24 18.557 26.65 13.115 L 26.65 13.115 L 26.65 13.115 Q 27.059 7.672 26.895 6.527 L 26.895 6.527 L 26.895 6.527 Q 26.884 6.445 26.813 6.247 L 26.813 6.247 L 25.996 6.364 L 25.996 6.364 Q 24.319 6.604 23.492 7.244 L 23.492 7.244 L 23.492 7.244 Q 22.934 6.698 22.662 5.527 L 22.662 5.527 L 22.662 5.527 Q 23.322 5.182 24.692 4.986 Z " fill="none"/><path d=" M 24.692 4.986 L 24.692 4.986 L 31.554 4.232 L 33.47 3.915 L 33.47 3.915 Q 33.593 4.336 33.66 4.806 L 33.66 4.806 L 33.66 4.806 Q 33.728 5.277 33.594 5.505 L 33.594 5.505 L 33.594 5.505 Q 33.459 5.733 33.03 5.794 L 33.03 5.794 L 33.03 5.794 Q 32.989 5.8 30.109 5.941 L 30.109 5.941 L 30.109 5.941 Q 30.159 6.873 29.946 9.178 L 29.946 9.178 L 29.946 9.178 Q 29.734 11.483 29.607 14.089 L 29.607 14.089 L 29.607 14.089 Q 29.479 16.695 29.749 18.722 L 29.749 18.722 L 29.749 18.722 Q 29.01 19.246 26.536 19.6 L 26.536 19.6 L 26.393 19.621 L 26.393 19.621 Q 26.24 18.557 26.65 13.115 L 26.65 13.115 L 26.65 13.115 Q 27.059 7.672 26.895 6.527 L 26.895 6.527 L 26.895 6.527 Q 26.884 6.445 26.813 6.247 L 26.813 6.247 L 25.996 6.364 L 25.996 6.364 Q 24.319 6.604 23.492 7.244 L 23.492 7.244 L 23.492 7.244 Q 22.934 6.698 22.662 5.527 L 22.662 5.527 L 22.662 5.527 Q 23.322 5.182 24.692 4.986 Z " fill="none" mask="url(#_mask_NNnF2Drt3durpmMzVoUsT067wglO4CiE)" vector-effect="non-scaling-stroke" stroke-width="2" stroke="rgb(255,56,92)" stroke-linejoin="miter" stroke-linecap="square" stroke-miterlimit="3"/></g></g></g></svg>